<?xml version="1.0" encoding="utf-8"?>
<!-- Generator: Adobe Illustrator 25.0.0, SVG Export Plug-In . SVG Version: 6.00 Build 0)  -->
<svg version="1.1" id="Layer_1" xmlns="http://www.w3.org/2000/svg" xmlns:xlink="http://www.w3.org/1999/xlink" x="0px" y="0px"
	 viewBox="0 0 595.3 841.9" style="enable-background:new 0 0 595.3 841.9;" xml:space="preserve">
<style type="text/css">
	.st0{display:none;fill:#FFFFFF;}
	.st1{fill:#E94C2B;}  /* Updated from #F47421 to #E94C2B to match new primary color (16 85% 56%) */
</style>
<path class="st0" d="M-591.8,452.2c0.9-8.8,1.7-17.4,2.6-26.1c0,0,0.1,0,0.1,0c0.9,8.7,1.8,17.4,2.7,26.1c4.6,0,9.1,0,13.7,0
	c2.1-18.9,4.1-37.7,6.2-56.6c-0.2-0.1-0.2-0.1-0.3-0.1c-3.5,0-7,0-10.5,0c-0.5,0-0.5,0.3-0.5,0.6c-0.3,4-0.7,7.9-1,11.9
	c-0.5,5.9-1,11.9-1.5,17.8c-0.1,1.4-0.2,2.7-0.4,4.1c-0.2-0.1-0.2-0.2-0.2-0.3c-0.4-4.9-0.9-9.8-1.3-14.7c-0.5-6.2-1-12.5-1.6-18.7
	c0-0.5-0.2-0.6-0.7-0.6c-3.1,0-6.3,0-9.4,0c-0.5,0-0.7,0.2-0.7,0.7c-0.1,1-0.1,2-0.2,3c-0.8,8.4-1.5,16.8-2.3,25.2
	c-0.2,2-0.4,3.9-0.5,5.9c-0.1-0.1-0.1-0.2-0.1-0.3c-0.5-5.5-1-11.1-1.5-16.6c-0.5-5.7-1-11.4-1.5-17.1c0-0.5-0.2-0.8-0.8-0.8
	c-3.3,0-6.5,0-9.8,0c-0.2,0-0.4,0-0.7,0c2,18.9,4.1,37.8,6.1,56.6C-601,452.2-596.5,452.2-591.8,452.2z"/>
<path class="st0" d="M-535.3,452.2c0-18.9,0-37.7,0-56.7c-0.3,0-0.6,0-0.8,0c-3.2,0-6.4,0-9.6,0c-0.7,0-0.9,0.2-0.9,0.9
	c0,6.2,0,12.3,0,18.5c0,0.3,0,0.6,0,0.9c-1.8,0-3.5,0-5.3,0c0-0.3,0-0.6,0-0.9c0-6.2,0-12.4,0-18.5c0-0.6-0.1-0.8-0.8-0.8
	c-3.3,0-6.6,0-9.8,0c-0.2,0-0.5,0-0.7,0c0,18.9,0,37.7,0,56.6c3.8,0,7.5,0,11.3,0c0-8.5,0-17,0-25.5c1.8,0,3.5,0,5.3,0
	c0,8.6,0,17,0,25.6C-542.8,452.2-539,452.2-535.3,452.2z"/>
<path class="st0" d="M-419.3,452.1c3.8,0,7.5,0,11.3,0c0-8.5,0-17,0-25.5c1.8,0,3.5,0,5.3,0c0,8.5,0,17,0,25.6c3.8,0,7.5,0,11.3,0
	c0-0.2,0-0.4,0-0.6c0-18.5,0-36.9,0-55.4c0-0.6-0.2-0.7-0.7-0.7c-3.3,0-6.5,0-9.8,0c-0.7,0-0.9,0.2-0.9,0.9c0,6.2,0,12.3,0,18.5
	c0,0.3,0,0.6,0,0.9c-1.8,0-3.5,0-5.3,0c0-6.8,0-13.5,0-20.2c-3.8,0-7.5,0-11.3,0C-419.3,414.4-419.3,433.3-419.3,452.1z"/>
<path class="st0" d="M-333.3,420.7c0.6-0.3,1.4-0.6,2-1.1c1.9-1.3,2.9-3.3,3.1-5.5c0.3-2.3,0.3-4.7,0.2-7c0-1.5-0.3-3-0.6-4.5
	c-0.5-2.3-1.7-4.2-3.8-5.5c-2-1.2-4.2-1.6-6.5-1.6c-5.2-0.1-10.4,0-15.7,0c-0.2,0-0.3,0-0.5,0.1c0,18.9,0,37.7,0,56.6
	c0.1,0,0.2,0,0.3,0c5.5,0,11,0.1,16.6,0c4.7-0.1,8.4-3,9.6-7.6c1.6-5.8,1.8-11.8,0.5-17.7c-0.5-2.1-1.3-4-3.2-5.1
	C-331.9,421.3-332.7,421-333.3,420.7z"/>
<path class="st0" d="M-370.5,395.5c0,0.4,0,0.7,0,1c0,13.4,0,26.8,0,40.2c0,1.3-0.2,2.6-0.4,3.8c-0.2,1.1-1,1.7-2.1,1.8
	c-1.3,0.1-2-0.4-2.4-1.5c-0.2-0.5-0.3-1-0.4-1.6c-0.1-1.2-0.2-2.4-0.2-3.6c0-13.1,0-26.1,0-39.2c0-0.7-0.2-0.9-0.9-0.9
	c-3.1,0-6.3,0-9.4,0c-0.2,0-0.5,0-0.8,0c0,0.3,0,0.6,0,0.8c0,13.6,0,27.3,0,40.9c0,2.6,0.3,5.1,1.2,7.6c1.2,3.3,3.2,5.8,6.6,6.9
	c3.5,1.2,7.1,1.2,10.7,0.4c3.7-0.9,6.3-3.2,7.7-6.7c1-2.6,1.4-5.2,1.4-8c0-13.7,0-27.5,0-41.2c0-0.2,0-0.5,0-0.8
	C-363.1,395.5-366.8,395.5-370.5,395.5z"/>
<path class="st0" d="M-450.9,431c0,1.9-0.1,3.8,0,5.6c0.1,2.1,0.3,4.3,0.6,6.3c0.5,2.7,1.7,5.2,3.9,7c1.5,1.2,3.2,1.9,5.1,2.3
	c2.9,0.6,5.8,0.7,8.6,0.2c4.6-0.8,7.1-3.8,8.4-8.1c1-3.4,1.3-6.8,1.1-10.3c-0.1-1.7-0.4-3.3-0.9-4.9c-1-3.3-3.1-5.8-5.5-8.2
	c-2.6-2.6-5.4-5.2-8-7.8c-1.3-1.3-2.2-2.8-2.5-4.7c-0.2-1.5,0.6-2.7,2-2.9c1.8-0.3,2.9,0.6,3,2.4c0.1,1.1,0,2.2,0,3.2
	c0,0.5,0.1,0.7,0.7,0.7c3.4,0,6.8,0,10.3,0c0.5,0,0.7-0.1,0.7-0.7c-0.1-2.9-0.3-5.7-1.3-8.5c-1.3-3.5-3.6-6-7.4-7
	c-2.9-0.8-5.8-0.9-8.7-0.5c-3.9,0.6-6.8,2.7-8.5,6.3c-1.5,3.3-1.8,6.9-1.4,10.4c0.5,4,2.5,7.3,5.4,10.1c2.5,2.4,5,4.8,7.5,7.3
	c1.6,1.6,2.8,3.4,3.2,5.6c0.3,1.9,0.6,3.9,0,5.8c-0.3,1-1,1.5-2.2,1.5c-1.2,0-2-0.4-2.3-1.4c-0.2-0.8-0.4-1.7-0.5-2.5
	c-0.1-2.2,0-4.4,0-6.5c0-0.2,0-0.5,0-0.8C-443.4,431-447.1,431-450.9,431z"/>
<path class="st0" d="M-530.2,395.5c0,19,0,37.8,0,56.7c7.8,0,15.6,0,23.4,0c0-0.1,0.1-0.3,0.1-0.4c0-3.4,0-6.7,0-10.1
	c0-0.6-0.3-0.6-0.7-0.6c-3.4,0-6.9,0-10.3,0c-0.3,0-0.5,0-0.8,0c0-4.3,0-8.6,0-12.9c3.6,0,7.1,0,10.6,0c0-3.6,0-7.1,0-10.7
	c-3.6,0-7.1,0-10.6,0c0-3.7,0-7.3,0-11c3.7,0,7.4,0,11.1,0c0-0.3,0-0.6,0-0.8c0-3.1,0-6.2,0-9.3c0-0.7-0.2-0.9-0.9-0.9
	c-7,0-14,0-21.1,0C-529.6,395.5-529.9,395.5-530.2,395.5z"/>
<path class="st0" d="M-479.7,452.1c0-0.2,0-0.5,0-0.7c0-3.2,0-6.4,0-9.6c0-0.6-0.2-0.8-0.8-0.8c-3.4,0-6.8,0-10.2,0
	c-0.3,0-0.5,0-0.8,0c0-4.4,0-8.6,0-13c3.6,0,7.1,0,10.6,0c0-3.6,0-7.1,0-10.7c-3.6,0-7.1,0-10.6,0c0-3.7,0-7.3,0-10.9
	c0.3,0,0.6,0,0.9,0c3.2,0,6.4,0,9.6,0c0.6,0,0.7-0.2,0.7-0.7c0-3.2,0-6.5,0-9.7c0-0.2,0-0.4-0.1-0.6c-0.2,0-0.4,0-0.5,0
	c-7.2,0-14.3,0-21.5,0c-0.7,0-0.7,0.4-0.7,0.8c0,18.4,0,36.7,0,55.1c0,0.2,0,0.5,0,0.8C-495.2,452.1-487.5,452.1-479.7,452.1z"/>
<path class="st0" d="M-464.5,395.5c-0.3,0-0.5,0-0.8,0c-3.3,0-6.6,0-9.8,0c-0.7,0-0.8,0.2-0.8,0.8c0,18.4,0,36.7,0,55.1
	c0,0.2,0,0.5,0,0.7c7.7,0,15.4,0,23.1,0c0-3,0-5.9,0-8.9c0-0.6-0.2-0.8-0.8-0.7c-3.3,0-6.7,0-10,0c-0.3,0-0.5,0-0.9,0
	C-464.5,426.8-464.5,411.2-464.5,395.5z"/>
<path class="st0" d="M-531.5,468.1C-531.5,468.1-531.5,468.1-531.5,468.1c0.6,2.6,1.1,5.2,1.7,7.7c0.8,3.4,1.6,6.8,2.4,10.2
	c0.1,0.5,0.3,0.6,0.8,0.6c0.6,0,1.3,0,1.9,0c0.5,0,0.7-0.2,0.8-0.6c1.8-6.5,3.7-13,5.5-19.5c0.2-0.8,0.4-1.6,0.7-2.5
	c-0.9,0-1.7,0-2.4,0c-0.4,0-0.7,0.1-0.8,0.6c-1.3,5.3-2.7,10.6-4,15.8c-0.2,0.8-0.4,1.6-0.5,2.3c-1.4-6.2-2.9-12.4-4.4-18.7
	c-0.9,0-1.8,0-2.6,0c-0.4,0-0.6,0.1-0.7,0.5c-1.3,5-2.6,10-3.9,15c-0.3,1.1-0.5,2.1-0.8,3.3c-0.1-0.2-0.2-0.2-0.2-0.3
	c-0.9-3.8-1.7-7.6-2.6-11.4c-0.5-2.1-1-4.3-1.5-6.4c-0.1-0.2-0.3-0.6-0.4-0.6c-0.9-0.1-1.8,0-2.9,0c0.3,1.3,0.6,2.5,0.9,3.7
	c0.8,3.3,1.7,6.6,2.5,9.9c0.7,2.8,1.4,5.7,2.2,8.5c0,0.2,0.3,0.5,0.5,0.5c0.9,0,1.8,0,2.8,0C-534.8,480.4-533.2,474.2-531.5,468.1z"
	/>
<path class="st0" d="M-354.9,486.5c0-0.3,0-0.5,0-0.8c0-3,0-6,0-9c0-1,0.2-2,0.9-2.8c1.5-2,4.6-2,5.6,0.2c0.4,0.8,0.6,1.8,0.7,2.7
	c0.1,3,0,5.9,0,8.9c0,0.3,0,0.5,0,0.8c1,0,1.9,0,2.9,0c0-0.2,0-0.3,0-0.4c0-3.2,0-6.5,0-9.7c0-0.5-0.1-1.1-0.2-1.6
	c-0.4-2.1-1.3-3.8-3.5-4.5c-2.2-0.7-4.2-0.3-5.9,1.3c-0.5,0.4-0.9,1-1.3,1.5c-1-2-2.4-3.1-4.7-3.1c-2.2,0-3.7,1-5,2.8
	c-0.1-0.7-0.1-1.3-0.2-1.9c0-0.2-0.2-0.5-0.4-0.5c-0.7-0.1-1.5,0-2.2,0c0,5.4,0,10.8,0,16.1c1,0,2,0,3,0c0-0.3,0-0.6,0-0.8
	c0-2.9,0-5.8,0-8.8c0-1.7,0.7-3.1,2.2-4c1.4-0.9,3.2-0.4,4.1,0.9c0.6,0.9,0.8,2,0.8,3.1c0,2.9,0,5.9,0,8.8c0,0.2,0,0.5,0,0.8
	C-356.8,486.5-355.9,486.5-354.9,486.5z"/>
<path class="st0" d="M-501.4,486.5c0-0.1,0.1-0.1,0.1-0.2c0-3.6,0-7.2-0.1-10.8c0-1.5-0.6-2.9-1.8-4c-2.4-2.3-6.5-2-8.5,0.7
	c-0.1,0.2-0.2,0.3-0.5,0.6c0-3.4,0-6.7,0-9.9c-1,0-2,0-2.9,0c0,7.9,0,15.8,0,23.6c1,0,1.9,0,2.9,0c0-0.3,0-0.5,0-0.8
	c0-2.9,0-5.9,0-8.8c0-1.1,0.4-2.1,1.1-3c1.8-2.2,5.3-1.8,6.3,0.7c0.3,0.9,0.5,1.9,0.5,2.9c0.1,2.8,0,5.5,0,8.3c0,0.2,0,0.5,0,0.7
	C-503.3,486.5-502.4,486.5-501.4,486.5z"/>
<path class="st0" d="M-328.3,483.8c-0.2,0.1-0.4,0.1-0.5,0.2c-2.1,0.7-4.2,1-6.4,0.2c-2-0.7-3.5-3.2-3-5.1c0.3,0,0.5,0,0.8,0
	c3.3,0,6.5,0,9.8,0c0.3,0,0.7,0.1,0.7-0.4c0.1-2.4-0.2-4.7-1.8-6.6c-2.3-2.7-7.1-2.8-9.8-0.2c-2.3,2.2-2.9,5-2.6,8.1
	c0.3,2.8,1.5,4.9,4.1,6.2c1.7,0.8,3.5,0.9,5.3,0.8c1.3-0.1,2.7-0.4,3.9-1C-327.9,485.2-328.1,484.5-328.3,483.8z"/>
<path class="st0" d="M-478.1,479.1c0.3,0,0.6,0,0.9,0c3.3,0,6.5,0,9.8,0c0.3,0,0.7,0.1,0.8-0.5c0.1-2.3-0.2-4.5-1.7-6.4
	c-2.4-3-7.5-3-10.2,0c-2.2,2.4-2.6,5.2-2.2,8.3c0.2,1.7,0.9,3.2,2.1,4.4c2.4,2.4,8,3,10.9,1.3c0.1-0.1,0.2-0.3,0.2-0.5
	c-0.1-0.6-0.3-1.2-0.5-1.8c-1.6,0.6-3.2,0.9-4.9,0.8C-476.1,484.5-478.2,482.3-478.1,479.1z"/>
<path class="st0" d="M-484.9,483.8c-1.7,0.7-3.4,0.9-5.1,0.8c-2.9-0.2-5.1-2.7-4.8-5.5c3.7,0,7.5,0,11.2,0c0.4-2.2-0.2-4.8-1.2-6.4
	c-2.3-3.6-8.2-3.4-10.8-0.3c-2.2,2.7-2.6,5.7-1.8,9c0.6,2.6,2.2,4.4,4.8,5.2c2,0.6,4.1,0.5,6.1,0.1c0.7-0.2,1.5-0.4,2.2-0.7
	C-484.6,485.2-484.7,484.5-484.9,483.8z"/>
<path class="st0" d="M-402.5,486.5c0-2.5,0-5,0-7.4c0-1,0-2.1,0-3.1c-0.1-2.4-0.8-4.5-3.2-5.5c-2.7-1.1-5.4-0.6-8,0.7
	c-0.1,0.1-0.3,0.3-0.2,0.4c0.2,0.6,0.4,1.2,0.6,1.8c2-0.9,3.4-1.3,4.8-1.2c2.1,0.2,3.5,1.9,3,4c-0.7,0-1.4,0.1-2.1,0.1
	c-1.9,0.2-3.7,0.6-5.4,1.7c-2.9,2-3,6.4-0.1,8.2c1.5,1,3.3,1.1,4.9,0.4c1.1-0.4,2-1.2,3-1.7c0.1,0.4,0.1,1.1,0.2,1.7
	C-404,486.5-403.2,486.5-402.5,486.5z"/>
<path class="st0" d="M-439.6,476.2c-0.7,0-1.4,0.1-2.1,0.1c-1.9,0.2-3.7,0.5-5.3,1.6c-1.8,1.2-2.5,3-2.2,5.1
	c0.3,1.9,1.4,3.2,3.3,3.7c2.4,0.6,4.5,0,6.3-1.8c0.1-0.1,0.2-0.2,0.4-0.4c0.1,0.7,0.2,1.3,0.2,1.9c0.9,0,1.8,0,2.5,0
	c0-3.4,0-6.7-0.1-10.1c0-0.8-0.1-1.6-0.3-2.4c-0.4-1.7-1.4-3-3.1-3.6c-2.7-0.9-5.3-0.5-7.7,0.7c-0.1,0.1-0.3,0.4-0.3,0.5
	c0.1,0.6,0.4,1.1,0.5,1.6c0.8-0.3,1.5-0.6,2.2-0.8c0.8-0.2,1.6-0.3,2.4-0.3C-440.7,472.3-439.4,473.9-439.6,476.2z"/>
<path class="st0" d="M-570.8,486.5c0-0.2,0-0.3,0-0.4c0-3.3,0-6.6,0-9.9c0-1.3-0.3-2.6-1-3.7c-2-3.3-7.2-3.4-9.6-0.3
	c-0.1,0.1-0.2,0.3-0.5,0.6c-0.1-0.8-0.1-1.4-0.1-2c0-0.2-0.2-0.5-0.3-0.5c-0.8,0-1.5,0-2.2,0c0,5.5,0,10.8,0,16.2c1,0,2,0,3,0
	c0-0.3,0-0.5,0-0.8c0-2.9,0-5.9,0-8.8c0-1.1,0.3-2,0.9-2.8c1.6-2.2,4.9-2.2,6.2,0c0.4,0.6,0.6,1.4,0.6,2.1c0.1,3.2,0.1,6.3,0.1,9.5
	c0,0.3,0,0.5,0,0.8C-572.7,486.5-571.8,486.5-570.8,486.5z"/>
<path class="st0" d="M-394.4,464c0,0.9,0,1.6,0,2.5c2.3,0,4.5,0,6.8,0c0,6.7,0,13.3,0,20c1,0,2,0,3,0c0-0.4,0-0.7,0-1
	c0-6.1,0-12.2,0-18.3c0-0.6,0.1-0.8,0.7-0.8c1.6,0,3.2,0,4.8,0c0.4,0,0.9,0,1.3,0c0-0.9,0-1.7,0-2.5C-383.3,464-388.8,464-394.4,464
	z"/>
<path class="st0" d="M-424.6,484.3c-0.4,0.1-0.8,0.1-1.2,0.2c-1.7,0.1-2.6-0.6-2.7-2.4c-0.1-3.1,0-6.1,0-9.2c0-0.1,0-0.1,0.1-0.3
	c1.3,0,2.7,0,4.1,0c0-0.8,0-1.5,0-2.3c-1.4,0-2.8,0-4.2,0c0-1.3,0-2.5,0-3.8c-0.9,0.3-1.6,0.5-2.4,0.7c-0.4,0.1-0.5,0.3-0.5,0.7
	c0,0.8,0,1.6,0,2.5c-0.9,0-1.7,0-2.5,0c0,0.8,0,1.5,0,2.3c0.8,0,1.6,0,2.5,0c0,0.4,0,0.6,0,0.9c0,3,0,6,0,9c0,1.4,0.4,2.7,1.5,3.5
	c1.6,1.2,3.3,1,5.1,0.5c0.1,0,0.3-0.2,0.3-0.3C-424.5,485.7-424.6,485-424.6,484.3z"/>
<path class="st0" d="M-460.1,486.5c0-7.9,0-15.8,0-23.6c-1,0-1.9,0-2.9,0c0,7.9,0,15.8,0,23.6C-462,486.5-461.1,486.5-460.1,486.5z"
	/>
<path class="st0" d="M-372.8,486.6c0-5.4,0-10.8,0-16.1c-1,0-1.9,0-2.9,0c0,5.4,0,10.8,0,16.1C-374.7,486.6-373.8,486.6-372.8,486.6
	z"/>
<path class="st0" d="M-376.1,465.8c0,1.1,0.7,1.8,1.7,1.8c1.1,0,1.9-0.7,1.9-1.8c0-1.1-0.7-1.9-1.8-1.9
	C-375.3,464-376.1,464.7-376.1,465.8z"/>
<path class="st0" d="M-344,425.8c0.9,0,1.8,0,2.6,0c1.2,0.1,2,0.6,2.4,1.8c0.3,0.9,0.5,1.8,0.5,2.7c0.1,2.6,0.1,5.3,0,7.9
	c0,3.3-2.5,4.1-5.1,3.9c-0.1,0-0.4-0.3-0.4-0.4c-0.1-0.4,0-0.8,0-1.2c0-4.6,0-9.2,0-13.8C-344,426.4-344,426.2-344,425.8z"/>
<path class="st0" d="M-344,404.3c1.1,0,2.1,0,3.1,0.2c0.8,0.1,1.2,0.7,1.5,1.5c0.1,0.2,0.1,0.5,0.1,0.8c0,2.5,0,5-0.1,7.5
	c0,0.3-0.1,0.6-0.2,0.9c-0.3,1.3-0.9,1.8-2.3,1.8c-0.7,0-1.4,0-2.1,0C-344,412.7-344,408.6-344,404.3z"/>
<path class="st0" d="M-338.2,476.9c0.3-2.9,2.3-4.9,4.7-4.7c2.4,0.2,3.9,2,3.8,4.7C-332.6,476.9-335.4,476.9-338.2,476.9z"/>
<path class="st0" d="M-469.7,476.9c-2.8,0-5.6,0-8.4,0c-0.2-2.3,2-4.7,4.3-4.7C-471.3,472.1-469.6,474-469.7,476.9z"/>
<path class="st0" d="M-405.4,478.3c0,1.2,0.1,2.2,0,3.3c-0.2,2.2-3.2,3.9-5.2,3c-1-0.5-1.4-1.3-1.5-2.4c-0.1-1.3,0.4-2.2,1.5-2.9
	C-409,478.4-407.2,478.4-405.4,478.3z"/>
<path class="st0" d="M-439.6,478.4c0,1.1,0.1,2.3,0,3.4c-0.3,2.1-3.3,3.6-5.2,2.7c-1-0.5-1.4-1.3-1.5-2.4c-0.1-1.2,0.5-2.2,1.5-2.8
	C-443.7,478.6-440.9,478.1-439.6,478.4z"/>
<g>
	<path d="M130.2,165.4c-1.1,0.5-2.2,1-3.3,1.4c-8.2,3.6-14.4,9.4-19.1,16.9c-3.4,5.5-5.6,11.5-7.3,17.7c-1.7,5.9-2.8,11.9-3.4,18
		c-0.6,6-0.6,11.9-0.2,17.9c0.6,8.7,2.4,17.2,5,25.5c3,9.5,6.9,18.6,12.1,27.2c5.3,8.8,12,16.4,20.2,22.5c3.9,2.9,8.2,5.3,12.6,7.4
		c0.3,0.1,0.6,0.3,0.9,0.5c0,0.1,0,0.1,0,0.2c-1-0.1-2.1-0.1-3.1-0.3c-8.1-1.1-15.3-4.5-21.8-9.4c-6.8-5.2-12.4-11.6-17.2-18.6
		c-4.7-6.9-8.4-14.3-11.7-21.9c-0.8-1.8-1.5-3.6-2.2-5.4c-0.1-0.2-0.2-0.4-0.5-0.6c0.3,1.3,0.5,2.5,0.8,3.8
		c1.1,4.6,2.4,9.1,4.2,13.5c4.3,10.9,9.8,21,17.8,29.7c4.5,4.9,9.7,9,15.3,12.5c0.3,0.2,0.5,0.3,0.8,0.5c0,0.1,0,0.2,0,0.3
		c-1.4,0-2.8,0.2-4.2,0.1c-4.7-0.2-8.9-2.1-12.9-4.5c-8.1-5.1-14.7-11.7-20.2-19.4c-5.3-7.5-9.4-15.6-13.1-24
		c-0.8-1.8-1.6-3.7-2.4-5.5c-0.1-0.2-0.2-0.3-0.3-0.5c4.4,19.5,12.6,37.1,27,51.5c-0.2,0-0.4,0-0.5,0c-6.7-1.7-12.7-4.6-17.7-9.6
		c-2.8-2.7-4.8-6-6.7-9.3c-4.9-9-9.9-18-14.8-27.1c-0.2-0.4-0.4-0.8-0.8-1.1c3,8.7,6.1,17.5,9.1,26.2c0,0-0.1,0.1-0.1,0.1
		c-0.9-1.1-1.9-2.2-2.8-3.3c-5.2-6.5-9.6-13.6-13.1-21.2c-3.4-7.2-5.9-14.7-7.7-22.4c-2-8.9-2.9-17.9-2.9-26.9
		c0-5.9,0.6-11.7,1.7-17.4c1.5-7.3,3.9-14.3,7.4-20.9c1.9-3.6,4.4-7,6.8-10.3c1-1.3,1.9-2.6,2.9-4c0.3,0.2,0.6,0.4,0.9,0.7
		c-0.7,1.1-1.3,2.1-2,3.2c-4.1,7-6.7,14.6-8.2,22.5c-1.4,7-2,14-1.9,21.1c0.1,7.9,0.9,15.8,2.9,23.5c0.1,0.2,0.1,0.4,0.4,0.6
		c0-0.3,0-0.6,0-0.8c0-6.5-0.2-13,0-19.5c0.2-7,1-13.8,2.7-20.6c2.6-10.5,7.6-19.8,15.1-27.6c1.6-1.7,3.1-3.4,4.7-5.1
		c1,0.6,1.1,0.6,0.5,1.6c-3.5,6.5-6.4,13.3-8.6,20.4c-1.7,5.3-3,10.8-3.8,16.3c-1.1,7.4-1.3,14.9-0.5,22.3c0.5,4.7,1.5,9.3,2.9,13.8
		c0,0.1,0.1,0.2,0.3,0.3c0-0.2,0-0.5,0-0.7c-0.1-4.9-0.1-9.9-0.2-14.8c0-5,0.2-10.1,0.8-15.1c1.1-9.3,3.4-18.3,7.9-26.6
		c3.3-6.1,7.5-11.6,13-16c2.2-1.8,4.7-3.3,7.3-4.5c0.1-0.1,0.3-0.1,0.6-0.2c-0.7,0.8-1.3,1.5-1.8,2.1c-3.9,4.7-6.9,10-9.2,15.7
		c-2,4.9-3.4,9.9-4.4,15.1c-1.6,8.3-2.1,16.7-1.7,25.2c0.3,5.6,1,11.1,2.3,16.5c0.1,0.2,0.1,0.5,0.3,0.7c0-0.4,0.1-0.8,0.1-1.2
		c0.2-4.8,0.4-9.6,0.6-14.4c0.4-7.2,0.8-14.3,2.2-21.4c2.6-12.8,8.2-24,18.2-32.6c5.7-4.9,12.3-8.3,19.8-9.8c0.5-0.1,1-0.2,1.4-0.2
		C128.4,165.4,129.3,165.4,130.2,165.4z"/>
	<path class="st1" d="M180.5,314.4c76.2,1.6,152.4,3.3,228.5,4.9c0,0.1,0,0.1,0,0.2c-0.2,0-0.4,0-0.6,0c-3.2,0-6.4,0-9.6,0
		c-17.9,0-35.8,0-53.7,0c-22.8,0-45.6,0-68.3,0.1c-25.5,0-51,0-76.6,0c-13.1,0-26.1,0-39.2,0c-4.1,0-8-0.9-11.8-2.2
		c-10.1-3.4-18-9.8-24.6-17.9c-7.3-9-13.1-19-17.2-29.8c-2.7-7.1-4.6-14.4-5.8-21.9c-1.4-8.7-1.7-17.5-1.2-26.4
		c0.4-6.5,1.3-12.8,3.1-19.1c2.6-8.9,6.6-17.1,12.9-24c4.8-5.3,10.6-8.9,17.6-10.5c7.9-1.8,15.2-0.3,22.1,3.9
		c7.9,4.9,14.4,11.2,19.8,18.6c6.3,8.6,10.9,18,14.5,28c2.3,6.4,4.2,12.9,5.6,19.6c0.9,4.6,1.6,9.2,2,13.8
		c0.4,5.2,0.5,10.4,0.1,15.6c-0.6,8.4-2.3,16.5-5,24.4c-2,6-5.2,11.3-8.7,16.5c-1.2,1.8-2.3,3.6-3.5,5.4
		C180.8,313.9,180.7,314.1,180.5,314.4z M184.1,256.2c0-5.8-0.4-10.9-1.2-15.9c-2.1-13.5-7-25.8-15.1-36.8
		c-5.6-7.6-12.3-13.6-20.9-17.6c-4.4-2-9.1-2.7-13.9-1.9c-6,1-10.9,4-14.9,8.5c-5.6,6.3-8.8,13.7-10.7,21.8c-1.4,5.9-2,11.9-2,17.9
		c0,3.1,0.3,6.2,0.6,9.3c0.7,7.4,2.3,14.7,4.7,21.7c3.1,8.9,7.6,17.1,13.6,24.4c4.6,5.6,9.9,10.5,16.6,13.7
		c5.2,2.4,10.5,3.5,16.2,2.5c5.6-1,10.3-3.8,14.1-7.9c5.9-6.3,9.3-13.9,11.2-22.2C183.8,267.7,184.2,261.6,184.1,256.2z"/>
	<path d="M225.6,269.1c-4.7,0-9.3,0-13.9,0c-2-18.9-4.1-37.7-6.1-56.6c0.3,0,0.5,0,0.7,0c3.3,0,6.5,0,9.8,0c0.6,0,0.7,0.2,0.8,0.8
		c0.5,5.7,1,11.4,1.5,17.1c0.5,5.5,1,11.1,1.5,16.6c0,0.1,0,0.2,0.1,0.3c0.2-2,0.4-3.9,0.5-5.9c0.8-8.4,1.5-16.8,2.3-25.2
		c0.1-1,0.2-2,0.2-3c0-0.5,0.2-0.7,0.7-0.7c3.1,0,6.3,0,9.4,0c0.5,0,0.6,0.2,0.7,0.6c0.5,6.2,1,12.5,1.6,18.7
		c0.4,4.9,0.8,9.8,1.3,14.7c0,0.1,0,0.2,0.2,0.3c0.1-1.4,0.2-2.7,0.4-4.1c0.5-5.9,1-11.9,1.5-17.8c0.3-4,0.7-7.9,1-11.9
		c0-0.3,0-0.6,0.5-0.6c3.5,0,7,0,10.5,0c0,0,0.1,0,0.3,0.1c-2.1,18.8-4.1,37.7-6.2,56.6c-4.6,0-9.1,0-13.7,0
		c-0.9-8.7-1.8-17.4-2.7-26.1c0,0-0.1,0-0.1,0C227.3,251.7,226.5,260.4,225.6,269.1z"/>
	<path d="M282.1,269.1c-3.8,0-7.5,0-11.3,0c0-8.5,0-17,0-25.6c-1.8,0-3.5,0-5.3,0c0,8.5,0,17,0,25.5c-3.8,0-7.6,0-11.3,0
		c0-18.9,0-37.7,0-56.6c0.3,0,0.5,0,0.7,0c3.3,0,6.6,0,9.8,0c0.6,0,0.8,0.2,0.8,0.8c0,6.2,0,12.4,0,18.5c0,0.3,0,0.6,0,0.9
		c1.8,0,3.5,0,5.3,0c0-0.3,0-0.6,0-0.9c0-6.2,0-12.3,0-18.5c0-0.7,0.2-0.9,0.9-0.9c3.2,0,6.4,0,9.6,0c0.3,0,0.5,0,0.8,0
		C282.1,231.4,282.1,250.2,282.1,269.1z"/>
	<path d="M398.1,269.1c0-18.9,0-37.7,0-56.6c3.8,0,7.5,0,11.3,0c0,6.7,0,13.4,0,20.2c1.8,0,3.5,0,5.3,0c0-0.3,0-0.6,0-0.9
		c0-6.2,0-12.3,0-18.5c0-0.7,0.2-0.9,0.9-0.9c3.3,0,6.5,0,9.8,0c0.5,0,0.7,0.1,0.7,0.7c0,18.5,0,36.9,0,55.4c0,0.2,0,0.4,0,0.6
		c-3.8,0-7.5,0-11.3,0c0-8.5,0-17,0-25.6c-1.8,0-3.5,0-5.3,0c0,8.5,0,17,0,25.5C405.6,269.1,401.9,269.1,398.1,269.1z"/>
	<path d="M484.1,237.6c0.6,0.3,1.4,0.6,2,1c1.9,1.2,2.8,3.1,3.2,5.1c1.3,5.9,1.1,11.9-0.5,17.7c-1.3,4.6-4.9,7.5-9.6,7.6
		c-5.5,0.1-11,0-16.6,0c-0.1,0-0.2,0-0.3,0c0-18.9,0-37.7,0-56.6c0.2,0,0.3-0.1,0.5-0.1c5.2,0,10.4,0,15.7,0c2.3,0,4.5,0.4,6.5,1.6
		c2.1,1.3,3.3,3.2,3.8,5.5c0.3,1.5,0.6,3,0.6,4.5c0.1,2.3,0,4.7-0.2,7c-0.3,2.2-1.2,4.2-3.1,5.5C485.4,237,484.7,237.3,484.1,237.6z
		 M473.4,242.8c0,0.4,0,0.6,0,0.9c0,4.6,0,9.2,0,13.8c0,0.4,0,0.8,0,1.2c0,0.2,0.2,0.4,0.4,0.4c2.6,0.2,5-0.6,5.1-3.9
		c0-2.6,0-5.3,0-7.9c0-0.9-0.3-1.8-0.5-2.7c-0.3-1.1-1.2-1.7-2.4-1.8C475.1,242.7,474.3,242.8,473.4,242.8z M473.4,221.2
		c0,4.3,0,8.4,0,12.6c0.7,0,1.4,0,2.1,0c1.4,0,2-0.5,2.3-1.8c0.1-0.3,0.2-0.6,0.2-0.9c0-2.5,0.1-5,0.1-7.5c0-0.3-0.1-0.5-0.1-0.8
		c-0.2-0.8-0.7-1.3-1.5-1.5C475.5,221.3,474.5,221.3,473.4,221.2z"/>
	<path d="M446.9,212.5c3.7,0,7.3,0,11,0c0,0.3,0,0.5,0,0.8c0,13.7,0,27.5,0,41.2c0,2.7-0.4,5.4-1.4,8c-1.4,3.5-4,5.8-7.7,6.7
		c-3.6,0.8-7.2,0.8-10.7-0.4c-3.4-1.2-5.5-3.6-6.6-6.9c-0.9-2.5-1.2-5-1.2-7.6c0-13.6,0-27.3,0-40.9c0-0.3,0-0.5,0-0.8
		c0.3,0,0.6,0,0.8,0c3.1,0,6.3,0,9.4,0c0.7,0,0.9,0.2,0.9,0.9c0,13.1,0,26.1,0,39.2c0,1.2,0.1,2.4,0.2,3.6c0,0.5,0.2,1.1,0.4,1.6
		c0.4,1.2,1.1,1.6,2.4,1.5c1.1-0.1,1.9-0.6,2.1-1.8c0.2-1.3,0.4-2.5,0.4-3.8c0-13.4,0-26.8,0-40.2
		C446.9,213.2,446.9,212.9,446.9,212.5z"/>
	<path d="M366.5,248c3.8,0,7.5,0,11.3,0c0,0.3,0,0.5,0,0.8c0,2.2,0,4.4,0,6.5c0,0.8,0.2,1.7,0.5,2.5c0.3,1,1.1,1.4,2.3,1.4
		c1.2,0,1.9-0.5,2.2-1.5c0.6-1.9,0.3-3.9,0-5.8c-0.4-2.3-1.7-4.1-3.2-5.6c-2.5-2.5-5-4.8-7.5-7.3c-2.9-2.8-4.9-6-5.4-10.1
		c-0.4-3.6-0.1-7.1,1.4-10.4c1.7-3.6,4.6-5.7,8.5-6.3c2.9-0.5,5.8-0.3,8.7,0.5c3.7,1,6.1,3.4,7.4,7c1,2.7,1.3,5.6,1.3,8.5
		c0,0.5-0.2,0.7-0.7,0.7c-3.4,0-6.8,0-10.3,0c-0.6,0-0.7-0.2-0.7-0.7c0-1.1,0-2.2,0-3.2c-0.1-1.8-1.2-2.7-3-2.4
		c-1.4,0.2-2.1,1.4-2,2.9c0.2,1.9,1.1,3.4,2.5,4.7c2.7,2.6,5.4,5.1,8,7.8c2.4,2.3,4.5,4.9,5.5,8.2c0.5,1.6,0.8,3.3,0.9,4.9
		c0.2,3.5,0,7-1.1,10.3c-1.3,4.3-3.9,7.2-8.4,8.1c-2.9,0.5-5.8,0.4-8.6-0.2c-1.9-0.4-3.6-1.1-5.1-2.3c-2.3-1.8-3.4-4.3-3.9-7
		c-0.4-2.1-0.5-4.2-0.6-6.3C366.5,251.7,366.5,249.9,366.5,248z"/>
	<path d="M287.2,212.5c0.3,0,0.6,0,0.8,0c7,0,14,0,21.1,0c0.7,0,0.9,0.2,0.9,0.9c0,3.1,0,6.2,0,9.3c0,0.3,0,0.5,0,0.8
		c-3.7,0-7.4,0-11.1,0c0,3.7,0,7.3,0,11c3.5,0,7,0,10.6,0c0,3.6,0,7.1,0,10.7c-3.5,0-7,0-10.6,0c0,4.3,0,8.6,0,12.9
		c0.3,0,0.5,0,0.8,0c3.4,0,6.9,0,10.3,0c0.4,0,0.7,0,0.7,0.6c0,3.4,0,6.7,0,10.1c0,0.1,0,0.2-0.1,0.4c-7.8,0-15.6,0-23.4,0
		C287.2,250.3,287.2,231.4,287.2,212.5z"/>
	<path d="M337.7,269.1c-7.8,0-15.6,0-23.4,0c0-0.3,0-0.5,0-0.8c0-18.4,0-36.7,0-55.1c0-0.5,0-0.8,0.7-0.8c7.2,0,14.3,0,21.5,0
		c0.2,0,0.3,0,0.5,0c0,0.2,0.1,0.4,0.1,0.6c0,3.2,0,6.5,0,9.7c0,0.5-0.1,0.7-0.7,0.7c-3.2,0-6.4,0-9.6,0c-0.3,0-0.5,0-0.9,0
		c0,3.7,0,7.3,0,10.9c3.5,0,7,0,10.6,0c0,3.6,0,7.1,0,10.7c-3.5,0-7,0-10.6,0c0,4.3,0,8.6,0,13c0.3,0,0.6,0,0.8,0
		c3.4,0,6.8,0,10.2,0c0.6,0,0.8,0.1,0.8,0.8c0,3.2,0,6.4,0,9.6C337.7,268.7,337.7,268.9,337.7,269.1z"/>
	<path d="M352.9,212.5c0,15.7,0,31.3,0,47c0.4,0,0.6,0,0.9,0c3.3,0,6.7,0,10,0c0.6,0,0.8,0.2,0.8,0.7c0,2.9,0,5.9,0,8.9
		c-7.7,0-15.3,0-23.1,0c0-0.2,0-0.5,0-0.7c0-18.4,0-36.7,0-55.1c0-0.6,0.1-0.8,0.8-0.8c3.3,0,6.6,0,9.8,0
		C352.3,212.5,352.5,212.5,352.9,212.5z"/>
	<path d="M285.9,285.1c-1.6,6.1-3.3,12.3-5,18.5c-1,0-1.9,0-2.8,0c-0.2,0-0.4-0.3-0.5-0.5c-0.7-2.8-1.5-5.7-2.2-8.5
		c-0.8-3.3-1.7-6.6-2.5-9.9c-0.3-1.2-0.6-2.4-0.9-3.7c1,0,1.9,0,2.9,0c0.2,0,0.4,0.4,0.4,0.6c0.5,2.1,1,4.3,1.5,6.4
		c0.9,3.8,1.7,7.6,2.6,11.4c0,0.1,0.1,0.1,0.2,0.3c0.3-1.2,0.5-2.2,0.8-3.3c1.3-5,2.6-10,3.9-15c0.1-0.4,0.3-0.5,0.7-0.5
		c0.8,0,1.7,0,2.6,0c1.5,6.3,2.9,12.5,4.4,18.7c0.2-0.7,0.3-1.5,0.5-2.3c1.3-5.3,2.7-10.5,4-15.8c0.1-0.5,0.3-0.6,0.8-0.6
		c0.8,0,1.5,0,2.4,0c-0.2,0.9-0.5,1.7-0.7,2.5c-1.8,6.5-3.7,13-5.5,19.5c-0.1,0.5-0.3,0.7-0.8,0.6c-0.6-0.1-1.3,0-1.9,0
		c-0.5,0-0.7-0.1-0.8-0.6c-0.8-3.4-1.6-6.8-2.4-10.2C286.9,290.3,286.4,287.7,285.9,285.1C285.9,285.1,285.9,285.1,285.9,285.1z"/>
	<path d="M208.5,292.8c0.1-3.6,0.9-6.5,3.1-9c4.1-4.7,13.9-4.7,16.8,3.3c1.5,4.2,1.3,8.4-1.1,12.3c-2.4,4-7.2,5.3-11.2,4.2
		c-4.4-1.2-6.5-4.3-7.3-8.6C208.6,294.2,208.5,293.3,208.5,292.8z M226.1,292.1c0-1.7-0.4-3.5-1.2-5.2c-2.3-4.6-8-5.3-11.2-1.4
		c-2.7,3.4-2.7,10,0,13.4c2.8,3.6,7.9,3.5,10.6-0.2C225.6,296.8,226,294.6,226.1,292.1z"/>
	<path d="M462.5,303.5c-1,0-1.9,0-2.9,0c0-0.3,0-0.5,0-0.8c0-2.9,0-5.9,0-8.8c0-1.1-0.2-2.1-0.8-3.1c-0.9-1.4-2.7-1.8-4.1-0.9
		c-1.5,0.9-2.2,2.3-2.2,4c0,2.9,0,5.8,0,8.8c0,0.3,0,0.5,0,0.8c-1,0-1.9,0-3,0c0-5.4,0-10.7,0-16.1c0.7,0,1.4,0,2.2,0
		c0.1,0,0.3,0.3,0.4,0.5c0.1,0.6,0.1,1.2,0.2,1.9c1.2-1.8,2.8-2.8,5-2.8c2.3,0,3.7,1.1,4.7,3.1c0.5-0.5,0.9-1.1,1.3-1.5
		c1.7-1.6,3.7-2,5.9-1.3c2.1,0.7,3,2.4,3.5,4.5c0.1,0.5,0.2,1.1,0.2,1.6c0,3.2,0,6.5,0,9.7c0,0.1,0,0.3,0,0.4c-1,0-1.9,0-2.9,0
		c0-0.3,0-0.6,0-0.8c0-3,0-5.9,0-8.9c0-0.9-0.3-1.9-0.7-2.7c-1.1-2.1-4.1-2.2-5.6-0.2c-0.6,0.8-0.9,1.8-0.9,2.8c0,3,0,6,0,9
		C462.5,303,462.5,303.2,462.5,303.5z"/>
	<path d="M315.9,303.5c-0.9,0-1.8,0-2.9,0c0-0.2,0-0.5,0-0.7c0-2.8,0-5.5,0-8.3c0-1-0.1-2-0.5-2.9c-0.9-2.5-4.5-2.9-6.3-0.7
		c-0.7,0.9-1.1,1.8-1.1,3c0,2.9,0,5.9,0,8.8c0,0.3,0,0.5,0,0.8c-1,0-1.9,0-2.9,0c0-7.9,0-15.7,0-23.6c0.9,0,1.9,0,2.9,0
		c0,3.3,0,6.5,0,9.9c0.2-0.3,0.4-0.4,0.5-0.6c2.1-2.6,6.1-3,8.5-0.7c1.1,1.1,1.7,2.5,1.8,4c0.1,3.6,0,7.2,0.1,10.8
		C316,303.4,316,303.4,315.9,303.5z"/>
	<path d="M489.1,300.7c0.2,0.8,0.3,1.4,0.5,2.1c-1.3,0.6-2.6,0.9-3.9,1c-1.8,0.2-3.7,0.1-5.3-0.8c-2.6-1.3-3.8-3.5-4.1-6.2
		c-0.3-3.1,0.3-5.9,2.6-8.1c2.7-2.6,7.5-2.5,9.8,0.2c1.6,1.9,1.9,4.2,1.8,6.6c0,0.5-0.4,0.4-0.7,0.4c-3.3,0-6.5,0-9.8,0
		c-0.3,0-0.6,0-0.8,0c-0.4,1.9,1,4.4,3,5.1c2.2,0.8,4.3,0.4,6.4-0.2C488.7,300.9,488.9,300.8,489.1,300.7z M479.2,293.8
		c2.8,0,5.6,0,8.4,0c0.2-2.7-1.3-4.5-3.8-4.7C481.4,289,479.4,291,479.2,293.8z"/>
	<path d="M339.2,296c-0.1,3.2,2,5.4,5.1,5.5c1.7,0.1,3.3-0.2,4.9-0.8c0.2,0.6,0.3,1.2,0.5,1.8c0,0.1-0.1,0.4-0.2,0.5
		c-2.9,1.8-8.6,1.1-10.9-1.3c-1.2-1.2-1.9-2.7-2.1-4.4c-0.4-3,0.1-5.9,2.2-8.3c2.7-2.9,7.9-2.9,10.2,0c1.5,1.9,1.8,4.1,1.7,6.4
		c0,0.5-0.4,0.5-0.8,0.5c-3.3,0-6.5,0-9.8,0C339.8,296,339.6,296,339.2,296z M347.7,293.8c0.1-2.8-1.6-4.8-4-4.7
		c-2.4,0-4.5,2.4-4.3,4.7C342.1,293.8,344.9,293.8,347.7,293.8z"/>
	<path d="M332.5,300.7c0.2,0.7,0.3,1.4,0.5,2.2c-0.7,0.2-1.5,0.5-2.2,0.7c-2,0.4-4.1,0.6-6.1-0.1c-2.6-0.8-4.2-2.6-4.8-5.2
		c-0.8-3.3-0.3-6.3,1.8-9c2.6-3.1,8.5-3.3,10.8,0.3c1.1,1.6,1.6,4.3,1.2,6.4c-3.7,0-7.5,0-11.2,0c-0.3,2.9,1.9,5.4,4.8,5.5
		C329.1,301.7,330.8,301.4,332.5,300.7z M331,293.8c0.1-2.7-1.5-4.7-4-4.7c-2.4,0-4.5,2.2-4.4,4.7
		C325.4,293.8,328.2,293.8,331,293.8z"/>
	<path d="M253.1,296c-0.2,3,2,5.4,4.9,5.5c1.7,0.1,3.3-0.2,5-0.8c0.2,0.6,0.3,1.2,0.4,1.9c0,0.1-0.1,0.4-0.3,0.4
		c-3.2,1.1-6.4,1.5-9.6-0.3c-1.1-0.6-1.9-1.6-2.5-2.7c-1.7-3.2-1.2-7.9,1.2-10.7c2.6-3,7.8-3.2,10.3-0.4c1.6,1.9,2,4.2,1.8,6.6
		c0,0.1-0.3,0.3-0.4,0.4c-0.1,0.1-0.3,0-0.5,0c-3.2,0-6.4,0-9.5,0C253.7,296,253.4,296,253.1,296z M261.6,293.8
		c0.1-2.7-1.4-4.5-3.8-4.7c-2.4-0.2-4.5,1.9-4.6,4.7C255.9,293.8,258.7,293.8,261.6,293.8z"/>
	<path d="M414.9,303.5c-0.7,0-1.5,0-2.4,0c-0.1-0.6-0.2-1.2-0.2-1.7c-1,0.6-1.9,1.3-3,1.7c-1.7,0.6-3.4,0.6-4.9-0.4
		c-2.9-1.8-2.8-6.2,0.1-8.2c1.6-1.1,3.4-1.5,5.4-1.7c0.7-0.1,1.4-0.1,2.1-0.1c0.5-2-0.9-3.8-3-4c-1.4-0.1-2.9,0.2-4.8,1.2
		c-0.2-0.6-0.4-1.2-0.6-1.8c0-0.1,0.1-0.4,0.2-0.4c2.6-1.3,5.3-1.7,8-0.7c2.4,1,3.1,3.1,3.2,5.5c0.1,1,0,2.1,0,3.1
		C414.9,298.5,414.9,301,414.9,303.5z M412,295.2c-1.8,0.1-3.6,0.1-5.2,1c-1.1,0.6-1.6,1.6-1.5,2.9c0.1,1.1,0.5,1.9,1.5,2.4
		c2,0.9,5-0.7,5.2-3C412.1,297.5,412,296.4,412,295.2z"/>
	<path d="M377.8,293.2c0.3-2.3-1-3.9-3.3-4c-0.8,0-1.6,0.1-2.4,0.3c-0.7,0.2-1.4,0.5-2.2,0.8c-0.2-0.5-0.4-1.1-0.5-1.6
		c0-0.1,0.1-0.5,0.3-0.5c2.5-1.2,5.1-1.6,7.7-0.7c1.7,0.6,2.7,1.9,3.1,3.6c0.2,0.8,0.3,1.6,0.3,2.4c0.1,3.3,0.1,6.7,0.1,10.1
		c-0.7,0-1.6,0-2.5,0c-0.1-0.6-0.1-1.2-0.2-1.9c-0.2,0.2-0.3,0.3-0.4,0.4c-1.8,1.8-3.9,2.4-6.3,1.8c-1.8-0.5-3-1.8-3.3-3.7
		c-0.3-2.1,0.3-3.9,2.2-5.1c1.6-1.1,3.4-1.5,5.3-1.6C376.3,293.2,377,293.2,377.8,293.2z M377.8,295.3c-1.3-0.2-4.1,0.3-5.2,0.9
		c-1,0.6-1.6,1.6-1.5,2.8c0.1,1.1,0.5,1.9,1.5,2.4c1.9,0.9,4.9-0.6,5.2-2.7C377.9,297.6,377.8,296.5,377.8,295.3z"/>
	<path d="M246.6,303.5c-1,0-1.9,0-2.9,0c0-0.3,0-0.6,0-0.8c0-3.2,0-6.3-0.1-9.5c0-0.7-0.3-1.5-0.6-2.1c-1.3-2.2-4.5-2.2-6.2,0
		c-0.6,0.8-1,1.7-0.9,2.8c0,2.9,0,5.9,0,8.8c0,0.3,0,0.5,0,0.8c-1,0-2,0-3,0c0-5.4,0-10.7,0-16.2c0.7,0,1.5,0,2.2,0
		c0.1,0,0.3,0.3,0.3,0.5c0.1,0.6,0.1,1.2,0.1,2c0.2-0.3,0.4-0.4,0.5-0.6c2.5-3.2,7.6-3,9.6,0.3c0.7,1.1,1,2.4,1,3.7
		c0,3.3,0,6.6,0,9.9C246.6,303.3,246.6,303.3,246.6,303.5z"/>
	<path d="M423,281c5.6,0,11.1,0,16.7,0c0,0.8,0,1.6,0,2.5c-0.5,0-0.9,0-1.3,0c-1.6,0-3.2,0-4.8,0c-0.6,0-0.7,0.2-0.7,0.8
		c0,6.1,0,12.2,0,18.3c0,0.3,0,0.6,0,1c-1,0-1.9,0-3,0c0-6.6,0-13.3,0-20c-2.3,0-4.5,0-6.8,0C423,282.7,423,281.9,423,281z"/>
	<path d="M392.8,301.3c0.1,0.7,0.1,1.3,0.1,2c0,0.1-0.2,0.3-0.3,0.3c-1.8,0.4-3.5,0.6-5.1-0.5c-1.2-0.9-1.5-2.2-1.5-3.5
		c-0.1-3,0-6,0-9c0-0.3,0-0.6,0-0.9c-0.9,0-1.6,0-2.5,0c0-0.8,0-1.5,0-2.3c0.8,0,1.6,0,2.5,0c0-0.9,0-1.7,0-2.5
		c0-0.4,0.1-0.6,0.5-0.7c0.8-0.2,1.5-0.4,2.4-0.7c0,1.3,0,2.5,0,3.8c1.5,0,2.8,0,4.2,0c0,0.8,0,1.5,0,2.3c-1.4,0-2.7,0-4.1,0
		c-0.1,0.2-0.1,0.2-0.1,0.3c0,3.1,0,6.1,0,9.2c0,1.7,0.9,2.5,2.7,2.4C392,301.4,392.3,301.3,392.8,301.3z"/>
	<path d="M357.3,303.5c-1,0-1.9,0-2.9,0c0-7.9,0-15.7,0-23.6c0.9,0,1.9,0,2.9,0C357.3,287.7,357.3,295.6,357.3,303.5z"/>
	<path d="M444.6,303.5c-1,0-1.9,0-2.9,0c0-5.4,0-10.7,0-16.1c1,0,1.9,0,2.9,0C444.6,292.8,444.6,298.1,444.6,303.5z"/>
	<path d="M441.3,282.8c0-1.1,0.8-1.9,1.8-1.9c1.1,0,1.8,0.8,1.8,1.9c0,1.1-0.8,1.8-1.9,1.8C441.9,284.6,441.3,283.9,441.3,282.8z"/>
	<path d="M132.3,289.7c2.4,0.9,3,0.6,3.6-1.7c1.1-4.3,2.2-8.6,3.4-13c0.6-2.1,1.2-4.1,2.4-6c0.4-0.6,0.9-1.2,1.4-1.7
		c1.7-1.7,4-1.8,6.1-0.5c1.6,1,2.7,2.5,3.7,4c2.7,4.1,4.9,8.5,7.1,13c0.3,0.6,0.5,1.2,0.9,1.7c0.8,1.2,0.7,2.5,0,3.7
		c-1.2,1.9-2.5,3.6-3.7,5.4c-1.2,1.6-2.4,3.2-3.6,4.8c-0.1,0.2-0.2,0.3-0.3,0.6c0.7-0.2,1.4-0.5,2-0.7c5.1-1.9,9.6-4.7,13.2-8.8
		c3.1-3.5,5.2-7.7,6.4-12.2c2-7.4,3-14.9,3-22.6c0-6.2-0.7-12.3-2-18.3c-1.2-5.3-2.8-10.5-4.8-15.6c-1.7-4.2-3.5-8.3-5.8-12.2
		c-4.7-7.9-11.2-13.9-19.5-17.8c-2.4-1.1-5-1.9-7.5-2.8c-0.1,0-0.1,0-0.4,0c0.9,0.8,1.6,1.5,2.4,2.2c2.2,2.1,4.4,4.1,6.5,6.2
		c1.3,1.3,1.7,2.9,1.4,4.7c-0.8,4.6-1.8,9.2-3.2,13.6c-0.5,1.7-1.3,3.1-2.5,4.4c-1.2,1.2-2.3,1.4-3.8,0.5c-2.1-1.4-3.9-3.2-5-5.5
		c-1.6-3.4-3.4-6.7-5.1-10c-1.4-2.8-2.9-5.5-4.4-8.2c-0.1-0.2-0.2-0.4-0.4-0.7c-0.5,0.4-1,0.8-1.5,1.2c-0.9,0.8-1.8,1.5-2.6,2.4
		c-1.2,1.2-1.5,2.8-0.9,4.3c0.8,1.9,1.7,3.8,2.6,5.6c2.2,4.6,4.5,9.2,6.7,13.9c0.6,1.3,1,2.8,1.3,4.3c0.7,4.4-1.9,7.7-6.3,8.2
		c-1.6,0.2-3.2-0.1-4.8-0.3c-2.5-0.3-5-0.7-7.4-0.9c-0.6-0.1-0.7-0.3-0.8-0.8c-0.9-5.5-0.5-11,0.5-16.4c0.9-5.1,2.4-10.1,4.5-14.8
		c2.4-5.2,5.6-9.6,10.5-12.8c5.3-3.5,10.9-4.2,16.9-2.3c4.9,1.6,9.1,4.5,13.1,7.8c5.3,4.4,9.4,9.8,12.9,15.6
		c5.8,9.4,9.4,19.7,11.2,30.6c1.2,7.4,1.8,14.8,1.4,22.3c-0.4,9.1-2.5,17.7-7.2,25.5c-2.2,3.6-4.9,6.8-8.5,9.1
		c-4.6,2.8-9.5,3.8-14.8,2.8c-7-1.2-12.6-4.9-17.2-10.2C133.1,290.7,132.8,290.3,132.3,289.7z"/>
	<path d="M126.9,284.2c-7.9-11-12.8-23.1-15.3-36.3c1.3,0.1,2.5,0.3,3.8,0.4c2,0.2,4,0.4,6,0.6c4.8,0.6,9.5,3.9,10.9,9.1
		c0.6,2.3,0.4,4.6-0.2,6.8c-1.4,5.6-2.9,11.1-4.4,16.7C127.5,282.3,127.2,283.2,126.9,284.2z"/>
	<path d="M156.9,211.1c0.5,1.4,1,2.7,1.5,4.1c2.2,6.1,4.3,12.2,6.5,18.3c0.1,0.2,0.2,0.5,0.3,0.7c0.2,0.6-0.2,1.8-0.8,2.1
		c-0.1,0.1-0.2,0.1-0.3,0.1c-1.3,0-2.7,0-4-0.1c-1.1,0-1.9-0.4-2.5-1.4c-1.3-2.1-2.6-4.1-3.5-6.4c-1.3-3.3-1.1-6.6-0.4-10
		c0.5-2.2,1-4.4,1.5-6.5C155.4,211.3,155.4,211.3,156.9,211.1z"/>
	<path d="M166.6,249.4c0,0.4,0,0.6,0,0.9c0,7.7,0,15.3,0,23c0,0.3,0.2,0.8-0.3,0.8c-0.5,0-1.1,0.5-1.6-0.4c-1.4-2.8-3-5.6-4.4-8.4
		c-2.3-4.5-2.3-9.1-0.2-13.7c0.6-1.4,1.7-2.4,3.3-2.4C164.5,249.3,165.5,249.4,166.6,249.4z"/>
	<path d="M150.2,246.3c-0.2,0.3-0.6,0.7-0.5,1c0.3,2.4-0.9,4.2-2,6.1c-0.2,0.3-0.4,0.6-0.6,0.9c-1,1.3-1.8,1.5-3.4,1
		c-2.8-0.9-4.5-3-5.8-5.6c-2.1-4.2-2.4-8.6-1-13.1c0.5-1.4,1.4-2.6,2.6-3.5c0.8-0.6,1.6-0.7,2.6-0.5c2.3,0.6,3.8,2,4.7,4.2
		c1.3,3.1,2.5,6.3,3.8,9.4C150.4,246.2,150.3,246.2,150.2,246.3z M146.8,247.6c-0.1-2.6-0.6-5.1-1.2-7.6c-0.4-1.9-1.6-2.9-3.2-3.6
		c-0.9-0.4-1.5-0.2-2.1,0.6c-0.4,0.6-0.7,1.2-1.1,1.8c-1.2,2.2-1.4,4.4-0.3,6.8c0.3,0.6,0.4,1.2,0.7,1.8c0.7,1.3,1.4,2.6,2.3,3.8
		c0.7,0.9,1.7,1.3,2.9,0.9c1.1-0.4,1.6-1.3,1.8-2.4C146.7,249,146.7,248.3,146.8,247.6z"/>
</g>
</svg>
